<svg width="56" height="56" viewBox="0 0 56 56" fill="none" xmlns="http://www.w3.org/2000/svg">
<rect width="56" height="56" rx="16" fill="#F6ECFF"/>
<g clip-path="url(#clip0_72_884)">
<mask id="mask0_72_884" style="mask-type:alpha" maskUnits="userSpaceOnUse" x="12" y="12" width="32" height="32">
<rect x="12" y="12" width="32" height="32" fill="#D9D9D9"/>
</mask>
<g mask="url(#mask0_72_884)">
<path d="M27.9997 27.9998C28.733 27.9998 29.361 27.7385 29.8837 27.2158C30.4055 26.6941 30.6663 26.0665 30.6663 25.3332C30.6663 24.5998 30.4055 23.9718 29.8837 23.4492C29.361 22.9274 28.733 22.6665 27.9997 22.6665C27.2663 22.6665 26.6388 22.9274 26.117 23.4492C25.5943 23.9718 25.333 24.5998 25.333 25.3332C25.333 26.0665 25.5943 26.6941 26.117 27.2158C26.6388 27.7385 27.2663 27.9998 27.9997 27.9998ZM27.9997 37.7998C30.7108 35.3109 32.7219 33.0496 34.033 31.0158C35.3441 28.9829 35.9997 27.1776 35.9997 25.5998C35.9997 23.1776 35.2272 21.1941 33.6823 19.6492C32.1383 18.1052 30.2441 17.3332 27.9997 17.3332C25.7552 17.3332 23.8606 18.1052 22.3157 19.6492C20.7717 21.1941 19.9997 23.1776 19.9997 25.5998C19.9997 27.1776 20.6552 28.9829 21.9663 31.0158C23.2775 33.0496 25.2886 35.3109 27.9997 37.7998ZM27.9997 41.3332C24.4219 38.2887 21.7499 35.4607 19.9837 32.8492C18.2166 30.2385 17.333 27.8221 17.333 25.5998C17.333 22.2665 18.4055 19.6109 20.5503 17.6332C22.6943 15.6554 25.1775 14.6665 27.9997 14.6665C30.8219 14.6665 33.305 15.6554 35.449 17.6332C37.5939 19.6109 38.6663 22.2665 38.6663 25.5998C38.6663 27.8221 37.7832 30.2385 36.017 32.8492C34.2499 35.4607 31.5775 38.2887 27.9997 41.3332Z" fill="#6B28FB"/>
</g>
</g>
<defs>
<clipPath id="clip0_72_884">
<rect width="32" height="32" fill="white" transform="translate(12 12)"/>
</clipPath>
</defs>
</svg>
