<svg width="92" height="32" viewBox="0 0 92 32" fill="none" xmlns="http://www.w3.org/2000/svg">
<path fill-rule="evenodd" clip-rule="evenodd" d="M66.3463 14.2222C66.3463 12.9846 65.6606 12.0963 65.0377 11.5244C64.4148 10.9526 63.4504 10.6667 62.1444 10.6667C61.2804 10.6667 60.4265 10.8096 59.5826 11.0956C58.7387 11.3611 58.0254 11.7287 57.4427 12.1984L55.8612 9.10239C56.7453 8.44884 57.8002 7.95868 59.0258 7.63191C60.2515 7.28471 61.5073 7.11111 62.7932 7.11111C65.2445 7.11111 67.424 7.69317 68.7501 8.85731C70.0963 10.0214 70.7694 11.8391 70.7694 14.3104V24H66.3463V21.7779C65.9773 22.4215 65.5762 23.1802 64.7797 23.6479C63.8755 24.1789 62.7102 24.4444 61.2836 24.4444C60.0379 24.4444 58.9629 24.23 58.0587 23.8011C57.1546 23.3722 56.4614 22.5022 55.9791 21.7669C55.4969 21.0113 55.2886 19.9881 55.2886 19.0282C55.2886 18.0683 55.5197 17.2207 55.9818 16.4854C56.4439 15.7502 57.1773 15.1783 58.1819 14.7699C59.2067 14.341 60.4968 14.2222 62.1444 14.2222H66.3463ZM66.3463 16.8889L62.6425 16.8531C61.4772 16.8531 60.7665 16.9637 60.3446 17.3517C59.9227 17.7193 59.7117 18.1891 59.7117 18.7609C59.7117 19.3333 59.9328 19.9105 60.4022 20.254C60.9045 20.6216 61.4946 20.8889 62.3385 20.8889C63.1824 20.8889 64.1348 20.6667 64.7982 20.271C65.904 19.5556 66.3463 19.1111 66.3463 16.8889Z" fill="black"/>
<path fill-rule="evenodd" clip-rule="evenodd" d="M11.7213 24.4444C17.7062 24.4444 22.5578 19.5693 22.5578 13.5556C22.5578 7.54178 17.7062 2.66666 11.7213 2.66666C5.73645 2.66666 0.884766 7.54178 0.884766 13.5556C0.884766 19.5693 5.73645 24.4444 11.7213 24.4444ZM11.7213 20.8889C15.2634 20.8889 18.1348 17.6056 18.1348 13.5556C18.1348 9.50546 15.2634 6.22222 11.7213 6.22222C8.17925 6.22222 5.30784 9.50546 5.30784 13.5556C5.30784 17.6056 8.17925 20.8889 11.7213 20.8889Z" fill="black"/>
<path fill-rule="evenodd" clip-rule="evenodd" d="M40.2502 7.11111H35.8271V31.1111H40.2502V22.2376C41.6587 23.61 43.5187 24.4444 45.5578 24.4444C49.9549 24.4444 53.5194 20.5642 53.5194 15.7778C53.5194 10.9913 49.9549 7.11111 45.5578 7.11111C43.5187 7.11111 41.6587 7.94557 40.2502 9.31791V7.11111ZM40.2502 15.7778C40.2502 18.5489 42.2304 20.8889 44.6732 20.8889C47.116 20.8889 49.0963 18.5489 49.0963 15.7778C49.0963 13.0067 47.116 10.6667 44.6732 10.6667C42.2304 10.6667 40.2502 13.0067 40.2502 15.7778Z" fill="black"/>
<path d="M74.566 30.7131C75.3729 30.9784 76.19 31.1111 77.0171 31.1111C77.9854 31.1111 78.873 30.958 79.6799 30.6519C80.4868 30.3661 81.2131 29.8457 81.8586 29.0905C82.5243 28.3557 83.1194 27.3454 83.6439 26.0595L91.1155 7.11111H86.8187L82.0387 18.6026L77.3197 7.11111H72.69L79.3419 23.6363C79.6021 24.2827 79.6497 25.1294 79.3944 25.7778C79.0908 26.5487 78.7198 26.849 78.4531 27.0648L78.4456 27.0708C78.0422 27.3974 77.6072 27.5556 76.9617 27.5556C76.4775 27.5556 75.9038 27.4688 75.4197 27.2851C74.9557 27.1014 74.5321 26.8361 74.1488 26.4891L72.5386 29.6109C73.0833 30.1008 73.7591 30.4682 74.566 30.7131Z" fill="black"/>
<path d="M30.0771 18.8724V0.888885L25.654 1.77777V18.3978C25.654 21.8582 27.6209 24 31.1554 24H32.7309V20.4444H31.8444C31.2053 20.4444 30.746 20.3512 30.4665 20.1097C30.2069 19.8482 30.0771 19.4357 30.0771 18.8724Z" fill="black"/>
</svg>
