<svg width="202" height="32" viewBox="0 0 202 32" fill="none" xmlns="http://www.w3.org/2000/svg">
<path fill-rule="evenodd" clip-rule="evenodd" d="M66.3463 14.222C66.3463 12.9843 65.6606 12.0961 65.0377 11.5242C64.4148 10.9524 63.4504 10.6664 62.1444 10.6664C61.2804 10.6664 60.4265 10.8094 59.5826 11.0953C58.7387 11.3608 58.0254 11.7285 57.4427 12.1982L55.8612 9.10218C56.7453 8.44863 57.8002 7.95847 59.0258 7.63169C60.2515 7.28449 61.5073 7.11089 62.7932 7.11089C65.2445 7.11089 67.424 7.69296 68.7501 8.85709C70.0963 10.0212 70.7694 11.8389 70.7694 14.3101V23.9998H66.3463V21.7777C65.9773 22.4213 65.5762 23.18 64.7797 23.6477C63.8755 24.1787 62.7102 24.4442 61.2836 24.4442C60.0379 24.4442 58.9629 24.2298 58.0587 23.8009C57.1546 23.372 56.4614 22.502 55.9791 21.7667C55.4969 21.0111 55.2886 19.9878 55.2886 19.0279C55.2886 18.068 55.5197 17.2205 55.9818 16.4852C56.4439 15.75 57.1773 15.1781 58.1819 14.7697C59.2067 14.3408 60.4968 14.222 62.1444 14.222H66.3463ZM66.3463 16.8887L62.6425 16.8529C61.4772 16.8529 60.7665 16.9634 60.3446 17.3515C59.9227 17.7191 59.7117 18.1888 59.7117 18.7607C59.7117 19.3331 59.9328 19.9103 60.4022 20.2538C60.9045 20.6214 61.4946 20.8887 62.3385 20.8887C63.1824 20.8887 64.1348 20.6665 64.7982 20.2708C65.904 19.5553 66.3463 19.1109 66.3463 16.8887Z" fill="black"/>
<path fill-rule="evenodd" clip-rule="evenodd" d="M11.7213 24.4442C17.7062 24.4442 22.5578 19.5691 22.5578 13.5553C22.5578 7.54157 17.7062 2.66645 11.7213 2.66645C5.73645 2.66645 0.884766 7.54157 0.884766 13.5553C0.884766 19.5691 5.73645 24.4442 11.7213 24.4442ZM11.7213 20.8887C15.2634 20.8887 18.1348 17.6054 18.1348 13.5553C18.1348 9.50525 15.2634 6.22201 11.7213 6.22201C8.17925 6.22201 5.30784 9.50525 5.30784 13.5553C5.30784 17.6054 8.17925 20.8887 11.7213 20.8887Z" fill="black"/>
<path fill-rule="evenodd" clip-rule="evenodd" d="M40.2502 7.11089H35.8271V31.1109H40.2502V22.2374C41.6587 23.6098 43.5187 24.4442 45.5578 24.4442C49.9549 24.4442 53.5194 20.564 53.5194 15.7776C53.5194 10.9911 49.9549 7.11089 45.5578 7.11089C43.5187 7.11089 41.6587 7.94536 40.2502 9.31769V7.11089ZM40.2502 15.7776C40.2502 18.5487 42.2304 20.8887 44.6732 20.8887C47.116 20.8887 49.0963 18.5487 49.0963 15.7776C49.0963 13.0064 47.116 10.6664 44.6732 10.6664C42.2304 10.6664 40.2502 13.0064 40.2502 15.7776Z" fill="black"/>
<path d="M74.566 30.7129C75.3729 30.9782 76.19 31.1109 77.0171 31.1109C77.9854 31.1109 78.873 30.9578 79.6799 30.6517C80.4868 30.3659 81.2131 29.8454 81.8586 29.0903C82.5243 28.3555 83.1194 27.3451 83.6439 26.0593L91.1155 7.11089H86.8187L82.0387 18.6024L77.3197 7.11089H72.69L79.3419 23.6361C79.6021 24.2825 79.6497 25.1292 79.3944 25.7776C79.0908 26.5485 78.7198 26.8488 78.4531 27.0645L78.4456 27.0706C78.0422 27.3972 77.6072 27.5553 76.9617 27.5553C76.4775 27.5553 75.9038 27.4686 75.4197 27.2849C74.9557 27.1012 74.5321 26.8359 74.1488 26.4889L72.5386 29.6107C73.0833 30.1006 73.7591 30.468 74.566 30.7129Z" fill="black"/>
<path d="M30.0771 18.8722V0.888672L25.654 1.77756V18.3976C25.654 21.858 27.6209 23.9998 31.1554 23.9998H32.7309V20.4442H31.8444C31.2053 20.4442 30.746 20.3509 30.4665 20.1095C30.2069 19.848 30.0771 19.4355 30.0771 18.8722Z" fill="black"/>
<rect x="104" y="2" width="98" height="28" rx="8" fill="#6B28FB"/>
<path d="M112.444 15.812C112.444 14.996 112.632 14.264 113.008 13.616C113.392 12.968 113.908 12.464 114.556 12.104C115.212 11.736 115.928 11.552 116.704 11.552C117.592 11.552 118.38 11.772 119.068 12.212C119.764 12.644 120.268 13.26 120.58 14.06H118.936C118.72 13.62 118.42 13.292 118.036 13.076C117.652 12.86 117.208 12.752 116.704 12.752C116.152 12.752 115.66 12.876 115.228 13.124C114.796 13.372 114.456 13.728 114.208 14.192C113.968 14.656 113.848 15.196 113.848 15.812C113.848 16.428 113.968 16.968 114.208 17.432C114.456 17.896 114.796 18.256 115.228 18.512C115.66 18.76 116.152 18.884 116.704 18.884C117.208 18.884 117.652 18.776 118.036 18.56C118.42 18.344 118.72 18.016 118.936 17.576H120.58C120.268 18.376 119.764 18.992 119.068 19.424C118.38 19.856 117.592 20.072 116.704 20.072C115.92 20.072 115.204 19.892 114.556 19.532C113.908 19.164 113.392 18.656 113.008 18.008C112.632 17.36 112.444 16.628 112.444 15.812ZM125.049 20.108C124.425 20.108 123.861 19.968 123.357 19.688C122.853 19.4 122.457 19 122.169 18.488C121.881 17.968 121.737 17.368 121.737 16.688C121.737 16.016 121.885 15.42 122.181 14.9C122.477 14.38 122.881 13.98 123.393 13.7C123.905 13.42 124.477 13.28 125.109 13.28C125.741 13.28 126.313 13.42 126.825 13.7C127.337 13.98 127.741 14.38 128.037 14.9C128.333 15.42 128.481 16.016 128.481 16.688C128.481 17.36 128.329 17.956 128.025 18.476C127.721 18.996 127.305 19.4 126.777 19.688C126.257 19.968 125.681 20.108 125.049 20.108ZM125.049 18.92C125.401 18.92 125.729 18.836 126.033 18.668C126.345 18.5 126.597 18.248 126.789 17.912C126.981 17.576 127.077 17.168 127.077 16.688C127.077 16.208 126.985 15.804 126.801 15.476C126.617 15.14 126.373 14.888 126.069 14.72C125.765 14.552 125.437 14.468 125.085 14.468C124.733 14.468 124.405 14.552 124.101 14.72C123.805 14.888 123.569 15.14 123.393 15.476C123.217 15.804 123.129 16.208 123.129 16.688C123.129 17.4 123.309 17.952 123.669 18.344C124.037 18.728 124.497 18.92 125.049 18.92ZM137.838 13.28C138.358 13.28 138.822 13.388 139.23 13.604C139.646 13.82 139.97 14.14 140.202 14.564C140.442 14.988 140.562 15.5 140.562 16.1V20H139.206V16.304C139.206 15.712 139.058 15.26 138.762 14.948C138.466 14.628 138.062 14.468 137.55 14.468C137.038 14.468 136.63 14.628 136.326 14.948C136.03 15.26 135.882 15.712 135.882 16.304V20H134.526V16.304C134.526 15.712 134.378 15.26 134.082 14.948C133.786 14.628 133.382 14.468 132.87 14.468C132.358 14.468 131.95 14.628 131.646 14.948C131.35 15.26 131.202 15.712 131.202 16.304V20H129.834V13.388H131.202V14.144C131.426 13.872 131.71 13.66 132.054 13.508C132.398 13.356 132.766 13.28 133.158 13.28C133.686 13.28 134.158 13.392 134.574 13.616C134.99 13.84 135.31 14.164 135.534 14.588C135.734 14.188 136.046 13.872 136.47 13.64C136.894 13.4 137.35 13.28 137.838 13.28ZM142.998 12.512C142.75 12.512 142.542 12.428 142.374 12.26C142.206 12.092 142.122 11.884 142.122 11.636C142.122 11.388 142.206 11.18 142.374 11.012C142.542 10.844 142.75 10.76 142.998 10.76C143.238 10.76 143.442 10.844 143.61 11.012C143.778 11.18 143.862 11.388 143.862 11.636C143.862 11.884 143.778 12.092 143.61 12.26C143.442 12.428 143.238 12.512 142.998 12.512ZM143.67 13.388V20H142.302V13.388H143.67ZM148.802 13.28C149.322 13.28 149.786 13.388 150.194 13.604C150.61 13.82 150.934 14.14 151.166 14.564C151.398 14.988 151.514 15.5 151.514 16.1V20H150.158V16.304C150.158 15.712 150.01 15.26 149.714 14.948C149.418 14.628 149.014 14.468 148.502 14.468C147.99 14.468 147.582 14.628 147.278 14.948C146.982 15.26 146.834 15.712 146.834 16.304V20H145.466V13.388H146.834V14.144C147.058 13.872 147.342 13.66 147.686 13.508C148.038 13.356 148.41 13.28 148.802 13.28ZM155.923 13.28C156.435 13.28 156.887 13.384 157.279 13.592C157.679 13.792 157.991 14.044 158.215 14.348V13.388H159.595V20.108C159.595 20.716 159.467 21.256 159.211 21.728C158.955 22.208 158.583 22.584 158.095 22.856C157.615 23.128 157.039 23.264 156.367 23.264C155.471 23.264 154.727 23.052 154.135 22.628C153.543 22.212 153.207 21.644 153.127 20.924H154.483C154.587 21.268 154.807 21.544 155.143 21.752C155.487 21.968 155.895 22.076 156.367 22.076C156.919 22.076 157.363 21.908 157.699 21.572C158.043 21.236 158.215 20.748 158.215 20.108V19.004C157.983 19.316 157.667 19.58 157.267 19.796C156.875 20.004 156.427 20.108 155.923 20.108C155.347 20.108 154.819 19.964 154.339 19.676C153.867 19.38 153.491 18.972 153.211 18.452C152.939 17.924 152.803 17.328 152.803 16.664C152.803 16 152.939 15.412 153.211 14.9C153.491 14.388 153.867 13.992 154.339 13.712C154.819 13.424 155.347 13.28 155.923 13.28ZM158.215 16.688C158.215 16.232 158.119 15.836 157.927 15.5C157.743 15.164 157.499 14.908 157.195 14.732C156.891 14.556 156.563 14.468 156.211 14.468C155.859 14.468 155.531 14.556 155.227 14.732C154.923 14.9 154.675 15.152 154.483 15.488C154.299 15.816 154.207 16.208 154.207 16.664C154.207 17.12 154.299 17.52 154.483 17.864C154.675 18.208 154.923 18.472 155.227 18.656C155.539 18.832 155.867 18.92 156.211 18.92C156.563 18.92 156.891 18.832 157.195 18.656C157.499 18.48 157.743 18.224 157.927 17.888C158.119 17.544 158.215 17.144 158.215 16.688ZM166.909 20.108C166.389 20.108 165.921 20.016 165.505 19.832C165.097 19.64 164.773 19.384 164.533 19.064C164.293 18.736 164.165 18.372 164.149 17.972H165.565C165.589 18.252 165.721 18.488 165.961 18.68C166.209 18.864 166.517 18.956 166.885 18.956C167.269 18.956 167.565 18.884 167.773 18.74C167.989 18.588 168.097 18.396 168.097 18.164C168.097 17.916 167.977 17.732 167.737 17.612C167.505 17.492 167.133 17.36 166.621 17.216C166.125 17.08 165.721 16.948 165.409 16.82C165.097 16.692 164.825 16.496 164.593 16.232C164.369 15.968 164.257 15.62 164.257 15.188C164.257 14.836 164.361 14.516 164.569 14.228C164.777 13.932 165.073 13.7 165.457 13.532C165.849 13.364 166.297 13.28 166.801 13.28C167.553 13.28 168.157 13.472 168.613 13.856C169.077 14.232 169.325 14.748 169.357 15.404H167.989C167.965 15.108 167.845 14.872 167.629 14.696C167.413 14.52 167.121 14.432 166.753 14.432C166.393 14.432 166.117 14.5 165.925 14.636C165.733 14.772 165.637 14.952 165.637 15.176C165.637 15.352 165.701 15.5 165.829 15.62C165.957 15.74 166.113 15.836 166.297 15.908C166.481 15.972 166.753 16.056 167.113 16.16C167.593 16.288 167.985 16.42 168.289 16.556C168.601 16.684 168.869 16.876 169.093 17.132C169.317 17.388 169.433 17.728 169.441 18.152C169.441 18.528 169.337 18.864 169.129 19.16C168.921 19.456 168.625 19.688 168.241 19.856C167.865 20.024 167.421 20.108 166.909 20.108ZM173.788 20.108C173.164 20.108 172.6 19.968 172.096 19.688C171.592 19.4 171.196 19 170.908 18.488C170.62 17.968 170.476 17.368 170.476 16.688C170.476 16.016 170.624 15.42 170.92 14.9C171.216 14.38 171.62 13.98 172.132 13.7C172.644 13.42 173.216 13.28 173.848 13.28C174.48 13.28 175.052 13.42 175.564 13.7C176.076 13.98 176.48 14.38 176.776 14.9C177.072 15.42 177.22 16.016 177.22 16.688C177.22 17.36 177.068 17.956 176.764 18.476C176.46 18.996 176.044 19.4 175.516 19.688C174.996 19.968 174.42 20.108 173.788 20.108ZM173.788 18.92C174.14 18.92 174.468 18.836 174.772 18.668C175.084 18.5 175.336 18.248 175.528 17.912C175.72 17.576 175.816 17.168 175.816 16.688C175.816 16.208 175.724 15.804 175.54 15.476C175.356 15.14 175.112 14.888 174.808 14.72C174.504 14.552 174.176 14.468 173.824 14.468C173.472 14.468 173.144 14.552 172.84 14.72C172.544 14.888 172.308 15.14 172.132 15.476C171.956 15.804 171.868 16.208 171.868 16.688C171.868 17.4 172.048 17.952 172.408 18.344C172.776 18.728 173.236 18.92 173.788 18.92ZM181.44 20.108C180.816 20.108 180.252 19.968 179.748 19.688C179.244 19.4 178.848 19 178.56 18.488C178.272 17.968 178.128 17.368 178.128 16.688C178.128 16.016 178.276 15.42 178.572 14.9C178.868 14.38 179.272 13.98 179.784 13.7C180.296 13.42 180.868 13.28 181.5 13.28C182.132 13.28 182.704 13.42 183.216 13.7C183.728 13.98 184.132 14.38 184.428 14.9C184.724 15.42 184.872 16.016 184.872 16.688C184.872 17.36 184.72 17.956 184.416 18.476C184.112 18.996 183.696 19.4 183.168 19.688C182.648 19.968 182.072 20.108 181.44 20.108ZM181.44 18.92C181.792 18.92 182.12 18.836 182.424 18.668C182.736 18.5 182.988 18.248 183.18 17.912C183.372 17.576 183.468 17.168 183.468 16.688C183.468 16.208 183.376 15.804 183.192 15.476C183.008 15.14 182.764 14.888 182.46 14.72C182.156 14.552 181.828 14.468 181.476 14.468C181.124 14.468 180.796 14.552 180.492 14.72C180.196 14.888 179.96 15.14 179.784 15.476C179.608 15.804 179.52 16.208 179.52 16.688C179.52 17.4 179.7 17.952 180.06 18.344C180.428 18.728 180.888 18.92 181.44 18.92ZM189.56 13.28C190.08 13.28 190.544 13.388 190.952 13.604C191.368 13.82 191.692 14.14 191.924 14.564C192.156 14.988 192.272 15.5 192.272 16.1V20H190.916V16.304C190.916 15.712 190.768 15.26 190.472 14.948C190.176 14.628 189.772 14.468 189.26 14.468C188.748 14.468 188.34 14.628 188.036 14.948C187.74 15.26 187.592 15.712 187.592 16.304V20H186.224V13.388H187.592V14.144C187.816 13.872 188.1 13.66 188.444 13.508C188.796 13.356 189.168 13.28 189.56 13.28Z" fill="white"/>
</svg>
