<svg width="56" height="56" viewBox="0 0 56 56" fill="none" xmlns="http://www.w3.org/2000/svg">
<rect width="56" height="56" rx="16" fill="#F6ECFF"/>
<g clip-path="url(#clip0_72_877)">
<mask id="mask0_72_877" style="mask-type:alpha" maskUnits="userSpaceOnUse" x="12" y="12" width="32" height="32">
<rect x="12" y="12" width="32" height="32" fill="#D9D9D9"/>
</mask>
<g mask="url(#mask0_72_877)">
<path d="M17.3337 38.6668C16.6003 38.6668 15.9728 38.4059 15.451 37.8842C14.9283 37.3615 14.667 36.7335 14.667 36.0002V20.0002C14.667 19.2668 14.9283 18.6393 15.451 18.1175C15.9728 17.5948 16.6003 17.3335 17.3337 17.3335H38.667C39.4003 17.3335 40.0283 17.5948 40.551 18.1175C41.0728 18.6393 41.3337 19.2668 41.3337 20.0002V36.0002C41.3337 36.7335 41.0728 37.3615 40.551 37.8842C40.0283 38.4059 39.4003 38.6668 38.667 38.6668H17.3337ZM28.0003 29.3335L17.3337 22.6668V36.0002H38.667V22.6668L28.0003 29.3335ZM28.0003 26.6668L38.667 20.0002H17.3337L28.0003 26.6668ZM17.3337 22.6668V20.0002V36.0002V22.6668Z" fill="#6B28FB"/>
</g>
</g>
<defs>
<clipPath id="clip0_72_877">
<rect width="32" height="32" fill="white" transform="translate(12 12)"/>
</clipPath>
</defs>
</svg>
