<svg width="56" height="56" viewBox="0 0 56 56" fill="none" xmlns="http://www.w3.org/2000/svg">
<rect width="56" height="56" rx="16" fill="#F6ECFF"/>
<g clip-path="url(#clip0_44_168)">
<mask id="mask0_44_168" style="mask-type:alpha" maskUnits="userSpaceOnUse" x="12" y="12" width="32" height="32">
<rect x="12" y="12" width="32" height="32" fill="#D9D9D9"/>
</mask>
<g mask="url(#mask0_44_168)">
<path d="M16 26.6667V16H26.6667V26.6667H16ZM18.6667 24H24V18.6667H18.6667V24ZM16 40V29.3333H26.6667V40H16ZM18.6667 37.3333H24V32H18.6667V37.3333ZM29.3333 26.6667V16H40V26.6667H29.3333ZM32 24H37.3333V18.6667H32V24ZM37.3333 40V37.3333H40V40H37.3333ZM29.3333 32V29.3333H32V32H29.3333ZM32 34.6667V32H34.6667V34.6667H32ZM29.3333 37.3333V34.6667H32V37.3333H29.3333ZM32 40V37.3333H34.6667V40H32ZM34.6667 37.3333V34.6667H37.3333V37.3333H34.6667ZM34.6667 32V29.3333H37.3333V32H34.6667ZM37.3333 34.6667V32H40V34.6667H37.3333Z" fill="#6B28FB"/>
</g>
</g>
<defs>
<clipPath id="clip0_44_168">
<rect width="32" height="32" fill="white" transform="translate(12 12)"/>
</clipPath>
</defs>
</svg>
