<svg width="56" height="56" viewBox="0 0 56 56" fill="none" xmlns="http://www.w3.org/2000/svg">
<rect width="56" height="56" rx="16" fill="#F6ECFF"/>
<g clip-path="url(#clip0_66_2152)">
<mask id="mask0_66_2152" style="mask-type:alpha" maskUnits="userSpaceOnUse" x="12" y="12" width="32" height="32">
<rect x="12" y="12" width="32" height="32" fill="#D9D9D9"/>
</mask>
<g mask="url(#mask0_66_2152)">
<path d="M23.6919 38.8333C21.3675 37.7666 19.4732 36.1555 18.0089 33.9999C16.5455 31.8444 15.8138 29.411 15.8138 26.6999C15.8138 26.1221 15.8473 25.5555 15.9143 24.9999C15.9814 24.4444 16.082 23.8999 16.2161 23.3666L14.674 24.2666L13.333 21.9666L19.7361 18.2999L23.4237 24.6333L21.077 25.9666L19.2667 22.8333C19.0209 23.4333 18.8367 24.0555 18.7142 24.6999C18.5909 25.3444 18.5292 26.011 18.5292 26.6999C18.5292 28.8555 19.1215 30.8168 20.306 32.5839C21.4905 34.3501 23.0661 35.6555 25.0328 36.4999L23.6919 38.8333ZM33.9501 22.6666V19.9999H37.6042C36.5762 18.7333 35.3358 17.7497 33.8831 17.0493C32.4304 16.3497 30.8883 15.9999 29.2568 15.9999C28.0276 15.9999 26.8655 16.1888 25.7703 16.5666C24.6752 16.9444 23.6695 17.4777 22.7532 18.1666L21.4122 15.8333C22.5297 15.0555 23.7424 14.4444 25.0502 13.9999C26.3572 13.5555 27.7482 13.3333 29.2233 13.3333C30.9889 13.3333 32.6816 13.6608 34.3015 14.3159C35.9222 14.9719 37.3696 15.9221 38.6435 17.1666V15.3333H41.3254V22.6666H33.9501ZM33.0785 42.6666L26.6755 38.9999L30.3631 32.6666L32.6762 33.9999L30.7654 37.2666C33.4026 36.8888 35.5986 35.7052 37.3535 33.7159C39.1075 31.7275 39.9844 29.3888 39.9844 26.6999C39.9844 26.4555 39.9791 26.2221 39.9683 25.9999C39.9567 25.7777 39.9286 25.5555 39.8839 25.3333H42.5993C42.6216 25.5555 42.6386 25.7724 42.6502 25.9839C42.661 26.1946 42.6663 26.4221 42.6663 26.6666C42.6663 29.6666 41.767 32.3501 39.9683 34.7173C38.1688 37.0835 35.8275 38.6777 32.9444 39.4999L34.4195 40.3666L33.0785 42.6666Z" fill="#6B28FB"/>
</g>
</g>
<defs>
<clipPath id="clip0_66_2152">
<rect width="32" height="32" fill="white" transform="translate(12 12)"/>
</clipPath>
</defs>
</svg>
