<svg width="56" height="56" viewBox="0 0 56 56" fill="none" xmlns="http://www.w3.org/2000/svg">
<rect width="56" height="56" rx="16" fill="#F6ECFF"/>
<g clip-path="url(#clip0_44_177)">
<mask id="mask0_44_177" style="mask-type:alpha" maskUnits="userSpaceOnUse" x="12" y="12" width="32" height="32">
<rect x="12" y="12" width="32" height="32" fill="#D9D9D9"/>
</mask>
<g mask="url(#mask0_44_177)">
<path d="M26.5997 32.7333L34.133 25.2L32.233 23.3L26.5997 28.9333L23.7997 26.1333L21.8997 28.0333L26.5997 32.7333ZM27.9997 41.3333C24.9108 40.5555 22.361 38.7831 20.3503 36.016C18.3388 33.2497 17.333 30.1777 17.333 26.8V18.6666L27.9997 14.6666L38.6663 18.6666V26.8C38.6663 30.1777 37.661 33.2497 35.6503 36.016C33.6388 38.7831 31.0886 40.5555 27.9997 41.3333ZM27.9997 38.5333C30.3108 37.8 32.2219 36.3333 33.733 34.1333C35.2441 31.9333 35.9997 29.4888 35.9997 26.8V20.5L27.9997 17.5L19.9997 20.5V26.8C19.9997 29.4888 20.7552 31.9333 22.2663 34.1333C23.7775 36.3333 25.6886 37.8 27.9997 38.5333Z" fill="#6B28FB"/>
</g>
</g>
<defs>
<clipPath id="clip0_44_177">
<rect width="32" height="32" fill="white" transform="translate(12 12)"/>
</clipPath>
</defs>
</svg>
