<svg width="56" height="56" viewBox="0 0 56 56" fill="none" xmlns="http://www.w3.org/2000/svg">
<rect width="56" height="56" rx="16" fill="#F6ECFF"/>
<g clip-path="url(#clip0_44_161)">
<mask id="mask0_44_161" style="mask-type:alpha" maskUnits="userSpaceOnUse" x="12" y="12" width="32" height="32">
<rect x="12" y="12" width="32" height="32" fill="#D9D9D9"/>
</mask>
<g mask="url(#mask0_44_161)">
<path d="M23.2003 31.5333C23.4003 31 23.5612 30.4386 23.683 29.8493C23.8057 29.2608 23.867 28.6444 23.867 28C23.867 27.3555 23.8057 26.7386 23.683 26.1493C23.5612 25.5608 23.4003 25 23.2003 24.4666L20.7337 25.4666C20.867 25.8666 20.9781 26.2777 21.067 26.7C21.1559 27.1222 21.2003 27.5555 21.2003 28C21.2003 28.4444 21.1559 28.8777 21.067 29.3C20.9781 29.7222 20.867 30.1333 20.7337 30.5333L23.2003 31.5333ZM27.467 33.3333C27.8448 32.4888 28.1172 31.6222 28.2843 30.7333C28.4505 29.8444 28.5337 28.9333 28.5337 28C28.5337 27.0666 28.4505 26.1555 28.2843 25.2666C28.1172 24.3777 27.8448 23.5111 27.467 22.6666L25.0003 23.6666C25.3114 24.3333 25.5337 25.0275 25.667 25.7493C25.8003 26.472 25.867 27.2222 25.867 28C25.867 28.7777 25.8003 29.528 25.667 30.2506C25.5337 30.9724 25.3114 31.6666 25.0003 32.3333L27.467 33.3333ZM31.8003 35.1333C32.267 34.0222 32.6168 32.872 32.8497 31.6826C33.0834 30.4942 33.2003 29.2666 33.2003 28C33.2003 26.7333 33.0834 25.5053 32.8497 24.316C32.6168 23.1275 32.267 21.9777 31.8003 20.8666L29.3337 21.9333C29.7337 22.8666 30.0337 23.8444 30.2337 24.8666C30.4337 25.8888 30.5337 26.9333 30.5337 28C30.5337 29.0666 30.4337 30.1111 30.2337 31.1333C30.0337 32.1555 29.7337 33.1333 29.3337 34.0666L31.8003 35.1333ZM28.0003 41.3333C26.1559 41.3333 24.4225 40.9831 22.8003 40.2826C21.1781 39.5831 19.767 38.6333 18.567 37.4333C17.367 36.2333 16.4172 34.8222 15.7177 33.2C15.0172 31.5777 14.667 29.8444 14.667 28C14.667 26.1555 15.0172 24.4222 15.7177 22.8C16.4172 21.1777 17.367 19.7666 18.567 18.5666C19.767 17.3666 21.1781 16.4164 22.8003 15.716C24.4225 15.0164 26.1559 14.6666 28.0003 14.6666C29.8448 14.6666 31.5781 15.0164 33.2003 15.716C34.8225 16.4164 36.2337 17.3666 37.4337 18.5666C38.6337 19.7666 39.5834 21.1777 40.283 22.8C40.9834 24.4222 41.3337 26.1555 41.3337 28C41.3337 29.8444 40.9834 31.5777 40.283 33.2C39.5834 34.8222 38.6337 36.2333 37.4337 37.4333C36.2337 38.6333 34.8225 39.5831 33.2003 40.2826C31.5781 40.9831 29.8448 41.3333 28.0003 41.3333ZM28.0003 38.6666C30.9781 38.6666 33.5003 37.6333 35.567 35.5666C37.6337 33.5 38.667 30.9777 38.667 28C38.667 25.0222 37.6337 22.5 35.567 20.4333C33.5003 18.3666 30.9781 17.3333 28.0003 17.3333C25.0225 17.3333 22.5003 18.3666 20.4337 20.4333C18.367 22.5 17.3337 25.0222 17.3337 28C17.3337 30.9777 18.367 33.5 20.4337 35.5666C22.5003 37.6333 25.0225 38.6666 28.0003 38.6666Z" fill="#6B28FB"/>
</g>
</g>
<defs>
<clipPath id="clip0_44_161">
<rect width="32" height="32" fill="white" transform="translate(12 12)"/>
</clipPath>
</defs>
</svg>
